<?xml version="1.0" encoding="UTF-8" standalone="no"?>
<!-- Created with Inkscape (http://www.inkscape.org/) -->

<svg
   xmlns:dc="http://purl.org/dc/elements/1.1/"
   xmlns:cc="http://creativecommons.org/ns#"
   xmlns:rdf="http://www.w3.org/1999/02/22-rdf-syntax-ns#"
   xmlns:svg="http://www.w3.org/2000/svg"
   xmlns="http://www.w3.org/2000/svg"
   xmlns:xlink="http://www.w3.org/1999/xlink"
   xmlns:sodipodi="http://sodipodi.sourceforge.net/DTD/sodipodi-0.dtd"
   xmlns:inkscape="http://www.inkscape.org/namespaces/inkscape"
   width="210mm"
   height="297mm"
   viewBox="0 0 210 297"
   version="1.1"
   id="svg8"
   inkscape:version="0.92.1 r15371"
   sodipodi:docname="totoro.svg"
   inkscape:export-filename="C:\Users\Mindaugas\Pictures\totoro.png"
   inkscape:export-xdpi="96"
   inkscape:export-ydpi="96">
  <defs
     id="defs2" />
  <sodipodi:namedview
     id="base"
     pagecolor="#ffffff"
     bordercolor="#666666"
     borderopacity="1.0"
     inkscape:pageopacity="0.0"
     inkscape:pageshadow="2"
     inkscape:zoom="0.80610173"
     inkscape:cx="311.07833"
     inkscape:cy="532.59403"
     inkscape:document-units="mm"
     inkscape:current-layer="layer20"
     showgrid="false"
     inkscape:snap-global="false"
     inkscape:window-width="1920"
     inkscape:window-height="1017"
     inkscape:window-x="-8"
     inkscape:window-y="-8"
     inkscape:window-maximized="1" />
  <metadata
     id="metadata5">
    <rdf:RDF>
      <cc:Work
         rdf:about="">
        <dc:format>image/svg+xml</dc:format>
        <dc:type
           rdf:resource="http://purl.org/dc/dcmitype/StillImage" />
        <dc:title />
      </cc:Work>
    </rdf:RDF>
  </metadata>
  <g
     inkscape:groupmode="layer"
     id="layer20"
     inkscape:label="land">
    <path
       style="fill:#007401;fill-opacity:1;stroke:#000000;stroke-width:0.26458332px;stroke-linecap:butt;stroke-linejoin:miter;stroke-opacity:1"
       d="m 110.01096,212.28692 c 3.01718,-0.23209 44.09722,1.39254 45.25768,1.39254 1.16045,0 -14.15753,3.94554 -14.15753,3.94554 0,0 37.36659,-1.62463 38.29495,-1.62463 0.92837,0 -32.95687,4.8739 -32.02851,5.57017 0.92837,0.69628 34.8136,7.659 34.8136,7.659 l -15.31798,2.78508 10.90826,2.78509 -62.43238,4.17763 15.55007,3.94554 -36.902409,-3.01718 c 0,0 -31.564329,-0.92836 -30.635967,-1.16045 0.928365,-0.23209 19.495614,-4.17763 19.495614,-4.17763 l -34.581505,-1.39254 11.372443,-6.73063 -25.065791,-3.48136 c 0,0 38.062865,-2.08882 33.421052,-2.553 -4.641813,-0.46418 -17.406797,-4.8739 -14.621709,-4.8739 2.785088,0 56.630112,-3.24927 56.630112,-3.24927 z"
       id="path5149"
       inkscape:connector-curvature="0"
       sodipodi:nodetypes="cscscccccccsccccssc" />
  </g>
  <g
     inkscape:label="body"
     inkscape:groupmode="layer"
     id="layer1"
     style="display:inline;opacity:1">
    <path
       style="fill:#6c6764;fill-opacity:1;stroke:#000000;stroke-width:0.66500002;stroke-linecap:butt;stroke-linejoin:miter;stroke-miterlimit:4;stroke-dasharray:none;stroke-opacity:1"
       d="m 106.25323,88.179618 16.32733,1.168319 c 0,0 3.56785,-3.062949 3.18987,-6.84271 -0.37797,-3.779763 -0.16885,-6.01126 -0.16885,-6.01126 0,0 13.16317,-22.736707 12.78519,-5.349802 -0.37797,17.386906 -9.02834,17.019578 -9.02834,17.019578 l -1.29719,2.885088 c 0,0 6.05025,3.868694 11.44541,17.630069 2.80367,7.1513 13.44561,15.55604 16.85031,26.83872 6.46678,21.42994 7.69757,28.27993 7.62289,34.9866 -0.0565,5.07099 -0.13018,8.46692 -2.54253,11.67555 0,0 -0.60007,-8.02762 -2.24704,-22.32623 -0.048,-0.41692 5.36936,30.89221 -2.79117,47.36053 -8.31548,21.92262 -47.61465,19.27993 -47.61465,19.27993 0,0 -2.57684,-5.30681 -2.67133,-9.37006"
       id="path3680"
       inkscape:connector-curvature="0"
       sodipodi:nodetypes="ccccsccssscsccc" />
    <use
       x="0"
       y="0"
       xlink:href="#path3680"
       id="use4610"
       transform="matrix(-1,0,0,1,212.71383,0)"
       width="100%"
       height="100%" />
  </g>
  <g
     inkscape:groupmode="layer"
     id="layer11"
     inkscape:label="feet"
     sodipodi:insensitive="true">
    <g
       inkscape:groupmode="layer"
       id="layer14"
       inkscape:label="feet 3">
      <path
         style="fill:#999999;stroke:#000000;stroke-width:0.18763788px;stroke-linecap:butt;stroke-linejoin:miter;stroke-opacity:1"
         d="m 131.69563,224.5142 c 1.62033,-0.29631 6.08335,0.14234 8.33037,0.68983 0.78081,0.20654 -4.69095,-2.31208 -5.7167,-2.30149 -1.02575,0.0106 -2.87387,0.54963 -2.87387,0.54963 -0.36197,0.32273 -0.60408,0.87506 0.26025,1.06201 z"
         id="path4872-0"
         inkscape:connector-curvature="0"
         sodipodi:nodetypes="ccsccc" />
      <use
         x="0"
         y="0"
         xlink:href="#path4872-0"
         id="use4992"
         transform="matrix(-1,0,0,1,213.64149,0.30006841)"
         width="100%"
         height="100%" />
    </g>
    <g
       inkscape:groupmode="layer"
       id="layer13"
       inkscape:label="feet 2">
      <path
         style="fill:#999999;stroke:#000000;stroke-width:0.20004614px;stroke-linecap:butt;stroke-linejoin:miter;stroke-opacity:1"
         d="m 130.31597,225.08568 c 1.35343,0.62128 5.89914,0.4257 7.54912,1.10614 0.64759,0.39725 -3.46961,-2.10456 -4.40083,-2.28944 -0.93122,-0.18488 -3.08057,-0.13629 -3.08057,-0.13629 -0.41967,0.31606 -0.79642,0.92965 -0.0677,1.31959 z"
         id="path4872"
         inkscape:connector-curvature="0"
         sodipodi:nodetypes="ccscc" />
      <use
         x="0"
         y="0"
         xlink:href="#path4872"
         id="use4990"
         transform="matrix(-1,0,0,1,213.3725,-0.04806755)"
         width="100%"
         height="100%" />
    </g>
    <g
       inkscape:groupmode="layer"
       id="layer12"
       inkscape:label="feet 1">
      <path
         style="fill:#999999;stroke:#000000;stroke-width:0.2076014px;stroke-linecap:butt;stroke-linejoin:miter;stroke-opacity:1"
         d="m 127.03149,225.9854 c 1.74404,0.42607 5.80483,-0.1202 7.92371,0.33312 0.84399,0.28974 -2.93912,-1.5149 -4.1161,-1.59969 -1.17697,-0.0848 -3.84846,0.12776 -3.84846,0.12776 -0.49256,0.30482 -0.90343,0.8618 0.0408,1.1388 z"
         id="path4872-5"
         inkscape:connector-curvature="0"
         sodipodi:nodetypes="ccsccc" />
      <use
         x="0"
         y="0"
         xlink:href="#path4872-5"
         id="use4988"
         transform="matrix(-1,0,0,1,212.09772,-0.04806755)"
         width="100%"
         height="100%" />
    </g>
  </g>
  <g
     inkscape:groupmode="layer"
     id="layer9"
     inkscape:label="mounth">
    <path
       style="fill:#ffffff;fill-opacity:1;stroke:#000000;stroke-width:0.25941882px;stroke-linecap:butt;stroke-linejoin:miter;stroke-opacity:1"
       d="m 71.551755,115.83886 c 0,0 16.8877,-1.1962 35.380695,-0.92884 18.493,0.26737 34.48172,1.1363 34.48172,1.1363 0,0 -27.35654,9.59545 -35.31881,9.52861 -12.074142,-0.10137 -34.543605,-9.73607 -34.543605,-9.73607 z"
       id="path4762"
       inkscape:connector-curvature="0"
       sodipodi:nodetypes="cscsc" />
    <path
       style="fill:none;stroke:#000000;stroke-width:0.32620016px;stroke-linecap:butt;stroke-linejoin:miter;stroke-opacity:1"
       d="m 106.34166,125.49337 0.0924,-10.43057"
       id="path4780"
       inkscape:connector-curvature="0"
       sodipodi:nodetypes="cc" />
    <path
       style="fill:none;stroke:#000000;stroke-width:0.26458332px;stroke-linecap:butt;stroke-linejoin:miter;stroke-opacity:1"
       d="m 116.62719,123.49585 c 0,0 0.84216,-2.97324 0.84216,-4.20166 0,-1.22842 -0.47247,-4.22737 -0.47247,-4.22737"
       id="path4782"
       inkscape:connector-curvature="0"
       sodipodi:nodetypes="csc" />
    <path
       style="fill:none;stroke:#000000;stroke-width:0.26458332px;stroke-linecap:butt;stroke-linejoin:miter;stroke-opacity:1"
       d="m 129.44357,120.03396 c 0,0 0.189,-1.74481 0.189,-2.97323 0,-1.22842 -0.18899,-1.55916 -0.18899,-1.55916"
       id="path4782-1"
       inkscape:connector-curvature="0"
       sodipodi:nodetypes="csc" />
    <path
       style="fill:none;stroke:#000000;stroke-width:0.3229391px;stroke-linecap:butt;stroke-linejoin:miter;stroke-opacity:1"
       d="m 94.901495,123.69604 c 0,0 -0.359106,-2.29665 -0.359106,-4.22289 0,-1.92624 0.448878,-4.44518 0.448878,-4.44518"
       id="path4782-9"
       inkscape:connector-curvature="0"
       sodipodi:nodetypes="csc" />
    <path
       style="fill:none;stroke:#000000;stroke-width:0.30670068px;stroke-linecap:butt;stroke-linejoin:miter;stroke-opacity:1"
       d="m 82.543653,119.96343 c 0,0 -0.165464,-0.36256 -0.165464,-2.24799 0,-1.88542 0.165455,-2.39305 0.165455,-2.39305"
       id="path4782-1-8"
       inkscape:connector-curvature="0"
       sodipodi:nodetypes="csc" />
  </g>
  <g
     inkscape:groupmode="layer"
     id="layer19"
     inkscape:label="belly fur"
     style="display:inline"
     sodipodi:insensitive="true">
    <path
       style="display:inline;fill:#fff8d6;fill-opacity:1;stroke:none;stroke-width:0.26458332px;stroke-linecap:butt;stroke-linejoin:miter;stroke-opacity:1"
       d="m 105.38539,217.87705 c 0,0 4.883,-0.87977 10.39864,-2.71778 0.45371,-0.15119 3.5863,-1.99153 4.34834,-3.08409 0.28103,-0.40293 -2.02312,2.28184 -1.54433,2.10774 4.10057,-1.49103 10.88068,-3.6357 16.64814,-5.81155 0.80522,-0.30378 -0.279,0.69674 -1.32948,1.72914 1.859,-0.69723 4.24557,-2.83773 4.94053,-3.13962 6.63875,-2.88393 12.4153,-6.46742 14.14772,-11.08448 0.095,-0.25328 0.36938,-1.68537 -0.34093,-3.09299 -0.2062,-0.40863 0.82655,1.38277 0.96189,0.8926 0.47335,-1.71439 0.92273,-3.81014 1.32757,-6.16082 0.1047,-0.60793 -0.45224,-5.18902 -1.37785,-10.57614 1.25841,2.43232 1.79258,8.05428 1.82922,7.72213 0.20341,-1.84414 0.41676,-3.78483 0.61532,-5.77935 0.04,-0.40221 0.38719,0.73195 0.58994,1.22833 0.0492,-0.51695 -0.37479,-3.47807 -0.32865,-4.00025 0.33084,-3.74392 0.57327,-7.60376 0.57327,-11.31343 0,-15.00713 -23.71688,-37.94406 -51.94429,-37.28761"
       id="path4994-3"
       inkscape:connector-curvature="0"
       sodipodi:nodetypes="csssscssssscsscssc" />
    <path
       style="display:inline;fill:#fff8d6;fill-opacity:1;stroke:none;stroke-width:0.26458332px;stroke-linecap:butt;stroke-linejoin:miter;stroke-opacity:1"
       d="m 106.24001,217.85415 c 0,0 -4.06244,-0.87976 -9.578081,-2.71777 -0.45371,-0.1512 -3.5863,-1.99154 -4.34834,-3.0841 -0.28103,-0.40293 2.02312,2.28184 1.54433,2.10775 -10.064719,-3.65969 -30.560093,-8.65866 -34.132583,-18.17967 -0.095,-0.25329 -0.36938,-1.68537 0.34093,-3.09298 0.2062,-0.40864 -0.826553,1.38276 -0.96189,0.89259 -0.462405,-1.67477 -0.892819,-3.6614 -1.276779,-5.86901 -0.107373,-0.61735 0.862308,-9.98438 1.168675,-10.92441 -1.692423,2.87991 -1.669466,7.74721 -1.758547,7.08978 -0.758148,-5.59519 -1.226215,-12.10136 -1.226215,-18.40012 0,-15.00713 21.993701,-38.68257 50.22111,-38.02612"
       id="path4994-1"
       inkscape:connector-curvature="0"
       sodipodi:nodetypes="cssssssscssc" />
  </g>
  <g
     inkscape:groupmode="layer"
     id="layer16"
     inkscape:label="shadows"
     style="display:inline"
     sodipodi:insensitive="true">
    <path
       style="fill:#c2bda1;fill-opacity:1;stroke:none;stroke-width:0.26458332px;stroke-linecap:butt;stroke-linejoin:miter;stroke-opacity:1"
       d="m 85.87354,204.62793 c 0,0 -6.749037,-3.66796 -10.214926,-19.63622 -0.03721,-0.17143 0.172025,-1.9074 0.479353,-2.54546 0.232115,-0.4819 -0.857427,0.70375 -0.903183,0.47418 -0.768879,-3.86485 -1.171853,-7.53937 -1.42996,-12.87358 -0.04093,-0.84586 1.10085,-5.27509 1.567316,-6.09297 0.359486,-0.63031 -1.604086,2.15715 -1.569973,1.45341 1.235679,-25.49144 22.530991,-37.40659 22.05127,-36.67258 -0.572219,0.87553 -21.730407,2.22855 -36.438233,25.41392 -4.322946,6.81468 -4.01151,12.08326 -2.839463,24.29012 0.195768,2.03893 0.440103,4.04247 0.731441,5.96239 0.05089,0.33536 -0.04184,-4.52485 1.665555,-7.38609 -0.177966,1.05759 -1.398895,9.04603 -1.341887,9.37238 1.17555,6.72954 2.962269,12.13649 5.285623,13.91908 0,0 3.295387,3.55738 15.762254,8.38343 1.214453,0.47012 13.640987,4.34032 14.700167,4.7643 0.708044,0.28343 -1.815211,-2.56553 -1.391559,-2.01785 0.328508,0.42469 3.278558,2.89874 3.744286,3.07099 6.197959,2.29222 9.637529,2.88595 9.637529,2.88595 z"
       id="path5062"
       inkscape:connector-curvature="0"
       sodipodi:nodetypes="csssssssssscscsssscc" />
    <path
       style="fill:#444444;fill-opacity:1;stroke:none;stroke-width:0.26458332px;stroke-linecap:butt;stroke-linejoin:miter;stroke-opacity:1"
       d="m 81.434804,85.130253 c 0,0 -2.988167,-4.902915 -3.684439,-7.920093 -0.696272,-3.017179 -2.727066,-10.415067 -2.727066,-10.415067 0,0 -0.464181,3.046191 -0.116045,6.78865 0.343953,3.697488 1.305508,7.862071 2.698054,10.240999 2.059804,3.626417 5.65721,3.800486 5.65721,3.800486 z"
       id="path4553"
       inkscape:connector-curvature="0"
       sodipodi:nodetypes="cscsccc" />
    <path
       style="display:inline;fill:#444444;fill-opacity:1;stroke:none;stroke-width:0.26458332px;stroke-linecap:butt;stroke-linejoin:miter;stroke-opacity:1"
       d="m 136.86496,79.919023 c 1.24516,-2.928676 0.87396,-12.775794 0.87396,-12.775794 0,0 -1.03747,7.477061 -3.04873,11.772413 -2.44197,4.389975 -3.50147,6.275425 -5.17725,8.668204 4.02481,-0.572697 5.79252,-4.289123 7.35202,-7.664823 z"
       id="path4553-4"
       inkscape:connector-curvature="0"
       sodipodi:nodetypes="ccccc" />
  </g>
  <g
     inkscape:groupmode="layer"
     id="layer3"
     inkscape:label="belly"
     style="display:inline">
    <path
       style="fill:none;fill-opacity:1;stroke:#000000;stroke-width:0.26458332px;stroke-linecap:butt;stroke-linejoin:miter;stroke-opacity:1"
       d="m 106.17107,217.88764 c 0,0 4.06244,-0.87977 9.57808,-2.71778 0.45371,-0.15119 3.5863,-1.99153 4.34834,-3.08409 0.28103,-0.40293 -2.02312,2.28184 -1.54433,2.10774 4.37499,-1.59081 10.77269,-3.45865 16.90139,-5.8441 0.60253,-0.23452 -0.68483,0.7568 -1.56669,1.74289 1.21539,-0.59911 4.47797,-2.92603 5.02668,-3.1653 6.59578,-2.87628 12.322,-6.44665 14.04553,-11.04001 0.095,-0.25328 0.36938,-1.68537 -0.34093,-3.09299 -0.2062,-0.40863 0.82655,1.38277 0.96189,0.8926 0.49417,-1.78983 0.83285,-3.21278 1.24228,-5.62639 0.0794,-0.46781 -0.58524,-9.80283 -1.28603,-11.0726 -0.33409,-0.60534 1.63689,3.18114 1.84555,7.52596 0.006,0.11618 0.19356,-2.02155 0.50509,-5.02154 0.0571,-0.54959 0.48923,-0.6951 0.71516,0.82042 0.23845,-1.47212 -0.40157,-5.1636 -0.35422,-5.75916 0.29525,-3.71354 0.47893,-6.25737 0.47893,-9.17182 0,-15.00713 -22.32192,-38.35434 -50.54933,-37.69789"
       id="path4994"
       inkscape:connector-curvature="0"
       sodipodi:nodetypes="csssscsssssssscssc" />
    <path
       style="display:inline;fill:none;fill-opacity:1;stroke:#000000;stroke-width:0.26458332px;stroke-linecap:butt;stroke-linejoin:miter;stroke-opacity:1"
       d="m 106.36612,217.88378 c 0,0 -4.06244,-0.87977 -9.578081,-2.71778 -0.45371,-0.15119 -3.5863,-1.99153 -4.34834,-3.08409 -0.28103,-0.40293 2.02312,2.28184 1.54433,2.10774 -10.06472,-3.65969 -30.83442,-8.78551 -34.40691,-18.30652 -0.095,-0.25329 -0.36938,-1.68537 0.34093,-3.09299 0.2062,-0.40863 -0.82655,1.38277 -0.96189,0.8926 -0.49417,-1.78983 -0.83285,-3.21278 -1.24228,-5.62639 -0.0794,-0.46781 0.58524,-9.80283 1.28603,-11.0726 0.33409,-0.60534 -1.63675,3.18115 -1.84555,7.52596 -0.0135,0.2811 -1.34496,-12.60841 -1.34496,-19.1321 0,-15.00713 22.32192,-38.35434 50.549331,-37.69789"
       id="path4994-5"
       inkscape:connector-curvature="0"
       sodipodi:nodetypes="cssssssssssc" />
  </g>
  <g
     inkscape:groupmode="layer"
     id="layer15"
     inkscape:label="belly marks"
     sodipodi:insensitive="true">
    <path
       style="fill:#929292;fill-opacity:1;stroke:#000000;stroke-width:0.26458332px;stroke-linecap:butt;stroke-linejoin:miter;stroke-opacity:1"
       d="m 106.87135,133.6372 c 3.01718,0.46418 6.77414,2.30639 7.00623,3.3508 0.23209,1.04441 -7.05387,-0.82681 -7.05387,-0.82681"
       id="path4999"
       inkscape:connector-curvature="0"
       sodipodi:nodetypes="csc" />
    <use
       x="0"
       y="0"
       xlink:href="#path4999"
       id="use5001"
       transform="matrix(-1,0,0,1,213.75853,0.01450567)"
       width="100%"
       height="100%" />
    <path
       style="fill:#929292;fill-opacity:1;stroke:#000000;stroke-width:0.26458332px;stroke-linecap:butt;stroke-linejoin:miter;stroke-opacity:1"
       d="m 127.12349,139.30941 c 3.01718,0.46418 6.38249,2.78508 6.61458,3.82949 0.23209,1.04441 -6.60008,-0.88484 -6.60008,-0.88484"
       id="path4999-3"
       inkscape:connector-curvature="0"
       sodipodi:nodetypes="csc" />
    <use
       x="0"
       y="0"
       xlink:href="#path4999-3"
       id="use5001-7"
       transform="matrix(-1,0,0,1,254.32082,0.01450927)"
       width="100%"
       height="100%" />
    <path
       style="fill:#929292;fill-opacity:1;stroke:#000000;stroke-width:0.26458332px;stroke-linecap:butt;stroke-linejoin:miter;stroke-opacity:1"
       d="m 87.435893,138.78021 c 3.017177,0.46418 6.382487,2.78508 6.614577,3.82949 0.23209,1.04441 -6.600077,-0.88484 -6.600077,-0.88484"
       id="path4999-1"
       inkscape:connector-curvature="0"
       sodipodi:nodetypes="csc" />
    <use
       x="0"
       y="0"
       xlink:href="#path4999-1"
       id="use5001-8"
       transform="matrix(-1,0,0,1,174.94556,0.01450927)"
       width="100%"
       height="100%" />
    <path
       style="fill:#929292;fill-opacity:1;stroke:#000000;stroke-width:0.26458332px;stroke-linecap:butt;stroke-linejoin:miter;stroke-opacity:1"
       d="m 139.82342,156.24273 c 3.01718,0.46418 6.38249,2.78508 6.61458,3.82949 0.23209,1.04441 -6.60008,-0.88484 -6.60008,-0.88484"
       id="path4999-0"
       inkscape:connector-curvature="0"
       sodipodi:nodetypes="csc" />
    <use
       x="0"
       y="0"
       xlink:href="#path4999-0"
       id="use5001-9"
       transform="matrix(-1,0,0,1,279.72068,0.01450927)"
       width="100%"
       height="100%" />
    <path
       style="fill:#929292;fill-opacity:1;stroke:#000000;stroke-width:0.26458332px;stroke-linecap:butt;stroke-linejoin:miter;stroke-opacity:1"
       d="m 119.18588,151.48023 c 3.01718,0.46418 6.38249,2.78508 6.61458,3.82949 0.23209,1.04441 -6.60008,-0.88484 -6.60008,-0.88484"
       id="path4999-4"
       inkscape:connector-curvature="0"
       sodipodi:nodetypes="csc" />
    <use
       x="0"
       y="0"
       xlink:href="#path4999-4"
       id="use5001-6"
       transform="matrix(-1,0,0,1,238.4456,0.01450927)"
       width="100%"
       height="100%" />
    <path
       style="fill:#929292;fill-opacity:1;stroke:#000000;stroke-width:0.26458332px;stroke-linecap:butt;stroke-linejoin:miter;stroke-opacity:1"
       d="m 97.490063,150.95106 c 3.017177,0.46418 6.382487,2.78508 6.614577,3.82949 0.23209,1.04441 -6.600077,-0.88484 -6.600077,-0.88484"
       id="path4999-7"
       inkscape:connector-curvature="0"
       sodipodi:nodetypes="csc" />
    <use
       x="0"
       y="0"
       xlink:href="#path4999-7"
       id="use5001-3"
       transform="matrix(-1,0,0,1,195.05396,0.01450927)"
       width="100%"
       height="100%" />
    <path
       style="fill:#929292;fill-opacity:1;stroke:#000000;stroke-width:0.26458332px;stroke-linecap:butt;stroke-linejoin:miter;stroke-opacity:1"
       d="m 74.206724,155.18439 c 3.01718,0.46418 6.382487,2.78508 6.614577,3.82949 0.23209,1.04441 -6.600077,-0.88484 -6.600077,-0.88484"
       id="path4999-47"
       inkscape:connector-curvature="0"
       sodipodi:nodetypes="csc" />
    <use
       x="0"
       y="0"
       xlink:href="#path4999-47"
       id="use5001-67"
       transform="matrix(-1,0,0,1,148.48724,0.01450927)"
       width="100%"
       height="100%" />
  </g>
  <g
     inkscape:groupmode="layer"
     id="layer10"
     inkscape:label="whiskers"
     sodipodi:insensitive="true">
    <path
       style="fill:none;stroke:#000000;stroke-width:0.26458332px;stroke-linecap:butt;stroke-linejoin:miter;stroke-opacity:1"
       d="M 132.76259,105.3746 154.6787,98.425596"
       id="path4859"
       inkscape:connector-curvature="0" />
    <path
       style="fill:none;stroke:#000000;stroke-width:0.26458332px;stroke-linecap:butt;stroke-linejoin:miter;stroke-opacity:1"
       d="m 132.83295,107.11894 21.9161,-1.33635"
       id="path4861"
       inkscape:connector-curvature="0" />
    <path
       style="fill:none;stroke:#000000;stroke-width:0.26458332px;stroke-linecap:butt;stroke-linejoin:miter;stroke-opacity:1"
       d="m 133.76131,108.89844 20.57976,4.81086"
       id="path4863"
       inkscape:connector-curvature="0" />
    <path
       style="fill:none;stroke:#000000;stroke-width:0.26458332px;stroke-linecap:butt;stroke-linejoin:miter;stroke-opacity:1"
       d="M 80.645037,104.96661 62.203442,100.42304"
       id="path4865"
       inkscape:connector-curvature="0" />
    <path
       style="fill:none;stroke:#000000;stroke-width:0.26458332px;stroke-linecap:butt;stroke-linejoin:miter;stroke-opacity:1"
       d="M 80.448128,107.04858 54.790251,106.78131"
       id="path4867"
       inkscape:connector-curvature="0"
       sodipodi:nodetypes="cc" />
    <path
       style="fill:none;stroke:#000000;stroke-width:0.26458332px;stroke-linecap:butt;stroke-linejoin:miter;stroke-opacity:1"
       d="m 80.645037,109.39781 c -1.603615,0 -20.045214,5.87993 -20.045214,5.87993"
       id="path4869"
       inkscape:connector-curvature="0" />
  </g>
  <g
     inkscape:groupmode="layer"
     id="layer4"
     inkscape:label="nose"
     sodipodi:insensitive="true">
    <path
       style="fill:#28220b;fill-opacity:1;stroke:#000000;stroke-width:0.22973347px;stroke-linecap:butt;stroke-linejoin:miter;stroke-opacity:1"
       d="m 106.03524,102.52252 c 0,0 7.90497,0.29807 8.58254,1.96718 0.67756,1.66913 -8.35669,3.99397 -8.35669,3.99397 0,0 -8.130829,-2.38446 -7.904979,-4.05358 0.22586,-1.66913 7.679129,-1.90757 7.679129,-1.90757 z"
       id="path4608"
       inkscape:connector-curvature="0"
       sodipodi:nodetypes="ccccc" />
  </g>
  <g
     inkscape:groupmode="layer"
     id="layer5"
     inkscape:label="eyes"
     style="display:inline"
     sodipodi:insensitive="true">
    <g
       inkscape:groupmode="layer"
       id="layer7"
       inkscape:label="eye whites">
      <path
         style="fill:#ffffff;fill-opacity:1;stroke:#000000;stroke-width:0.26458332;stroke-opacity:1"
         id="path4658"
         sodipodi:type="arc"
         sodipodi:cx="124.61441"
         sodipodi:cy="101.42552"
         sodipodi:rx="3.5413215"
         sodipodi:ry="3.6749561"
         sodipodi:start="0"
         sodipodi:end="6.2817405"
         sodipodi:open="true"
         d="m 128.15573,101.42552 a 3.5413215,3.6749561 0 0 1 -3.54004,3.67496 3.5413215,3.6749561 0 0 1 -3.5426,-3.6723 3.5413215,3.6749561 0 0 1 3.53748,-3.677612 3.5413215,3.6749561 0 0 1 3.54516,3.669642" />
      <path
         style="display:inline;fill:#ffffff;fill-opacity:1;stroke:#000000;stroke-width:0.26458332;stroke-opacity:1"
         id="path4658-3"
         sodipodi:type="arc"
         sodipodi:cx="87.891739"
         sodipodi:cy="101.1597"
         sodipodi:rx="3.5413215"
         sodipodi:ry="3.6749561"
         sodipodi:start="0"
         sodipodi:end="6.2817405"
         sodipodi:open="true"
         d="m 91.43306,101.1597 a 3.5413215,3.6749561 0 0 1 -3.540042,3.67495 3.5413215,3.6749561 0 0 1 -3.5426,-3.6723 3.5413215,3.6749561 0 0 1 3.537483,-3.677605 3.5413215,3.6749561 0 0 1 3.545156,3.669645" />
    </g>
    <g
       inkscape:groupmode="layer"
       id="layer6"
       inkscape:label="eye pupils">
      <path
         style="display:inline;fill:#000000;fill-opacity:1;stroke:#000000;stroke-width:0.44120887;stroke-opacity:1"
         id="path4660"
         sodipodi:type="arc"
         sodipodi:cx="87.608261"
         sodipodi:cy="100.9707"
         sodipodi:rx="1.4484872"
         sodipodi:ry="1.4484868"
         sodipodi:start="0"
         sodipodi:end="6.2723589"
         sodipodi:open="true"
         d="m 89.056748,100.9707 a 1.4484872,1.4484868 0 0 1 -1.444566,1.44848 1.4484872,1.4484868 0 0 1 -1.452387,-1.44064 1.4484872,1.4484868 0 0 1 1.436705,-1.456276 1.4484872,1.4484868 0 0 1 1.460163,1.432756" />
      <path
         style="display:inline;fill:#000000;fill-opacity:1;stroke:#000000;stroke-width:0.44120887;stroke-opacity:1"
         id="path4660-0"
         sodipodi:type="arc"
         sodipodi:cx="124.35417"
         sodipodi:cy="101.11384"
         sodipodi:rx="1.4484872"
         sodipodi:ry="1.4484868"
         sodipodi:start="0"
         sodipodi:end="6.2723589"
         sodipodi:open="true"
         d="m 125.80266,101.11384 a 1.4484872,1.4484868 0 0 1 -1.44457,1.44848 1.4484872,1.4484868 0 0 1 -1.45238,-1.44064 1.4484872,1.4484868 0 0 1 1.4367,-1.456281 1.4484872,1.4484868 0 0 1 1.46016,1.432761" />
    </g>
    <g
       inkscape:groupmode="layer"
       id="layer8"
       inkscape:label="eye reflection">
      <path
         style="fill:#ffffff;fill-opacity:1;stroke:none;stroke-width:0.10999179;stroke-opacity:1"
         id="path4665"
         sodipodi:type="arc"
         sodipodi:cx="123.67786"
         sodipodi:cy="100.19332"
         sodipodi:rx="0.27638283"
         sodipodi:ry="0.33500001"
         sodipodi:start="3.8449368"
         sodipodi:end="3.3914525"
         d="m 123.46706,99.976653 a 0.27638283,0.33500001 0 0 1 0.36456,-0.0617 0.27638283,0.33500001 0 0 1 0.0918,0.432059 0.27638283,0.33500001 0 0 1 -0.34378,0.15945 0.27638283,0.33500001 0 0 1 -0.1696,-0.39597 l 0.2678,0.0828 z" />
      <path
         style="display:inline;fill:#ffffff;fill-opacity:1;stroke:none;stroke-width:0.10999179;stroke-opacity:1"
         id="path4665-2"
         sodipodi:type="arc"
         sodipodi:cx="86.965706"
         sodipodi:cy="100.36594"
         sodipodi:rx="0.27638283"
         sodipodi:ry="0.33500001"
         sodipodi:start="3.8449368"
         sodipodi:end="3.3914525"
         d="m 86.754913,100.14927 a 0.27638283,0.33500001 0 0 1 0.364555,-0.0617 0.27638283,0.33500001 0 0 1 0.09182,0.43205 0.27638283,0.33500001 0 0 1 -0.34378,0.15946 0.27638283,0.33500001 0 0 1 -0.169602,-0.39598 l 0.2678,0.0828 z" />
    </g>
  </g>
</svg>
